<svg xmlns="http://www.w3.org/2000/svg" version="1.1" xmlns:xlink="http://www.w3.org/1999/xlink" 
width="512" height="512" x="0" y="0" viewBox="0 0 512 512" style="enable-background:new 0 0 512 512" 
xml:space="preserve" class=""><g><circle cx="256" cy="256" r="256" style="" fill="#6e6e6e" data-original="#434d70" 
class="" opacity="1"></circle><path d="M198.935 67.393c-33.463 137.459 7.91 265.567 92.409 286.138 84.499 20.571 
180.126-74.187 213.589-211.645S446.688 83.085 362.19 62.515 232.398-70.066 198.935 67.393z" style="" fill="#ffc000" 
data-original="#f9cb3f" class="" opacity="1"></path><path d="M291.338 353.528c-84.501-20.568-125.869-148.676-92.404-286.134 
19.908-81.786 44.006-75.26 78.053-52.209-8.339 8.02-16.621 27.375-25.765 64.941-33.465 137.456-15.506 259.864 40.116 273.402z" 
style="" fill="#ebb000" data-original="#e5b832" class="" opacity="1"></path><path d="M271.592 139.354c17.634 4.292 35.334.645 49.362-8.639-8.841 
20.465-31.38 32.2-53.771 26.749-22.391-5.451-37.014-26.232-35.46-48.472 8.192 14.694 22.235 26.069 39.869 30.362zM407.328 172.398c17.634 4.292 
35.334.645 49.362-8.639-8.841 20.465-31.38 32.2-53.771 26.749-22.391-5.451-37.014-26.232-35.46-48.472 8.192 14.693 22.236 26.069 39.869 
30.362zM3160.533 259.896c-29.698-7.23-59.511-1.087-83.136 14.551 14.89-34.468 52.852-54.231 90.561-45.051 37.71 9.18 62.341 44.181 59.721 
81.636-13.794-24.746-37.447-43.905-67.146-51.136z" style="" fill="#6e6e6e" data-original="#434d70" class="" opacity="1"></path>
<path d="M243.587 511.697c-30.793-1.463-60.165-8.37-87.165-19.79-54.826-23.165-99.892-64.888-127.342-117.3 0 
0-.01 0-.01-.01-8.882-20.48-16.342-42.538-22.006-65.829-3.48-14.305-5.601-26.258-6.531-36.237l-.031-.355c-.408-4.587-.564-8.756-.47-12.528a.
264.264 0 0 1 0-.125c1.62-66.351 78.273-12.716 149.776-30.124 84.501-20.574 129.797-132.577 163.255 4.88 30.28 124.361-.712 241.087-69.476 
277.418z" style="" fill="#e9005d" data-original="#f43380" class="" opacity="1"></path><path d="M156.421 491.907c-54.826-23.165-99.903-64.899-127.
352-117.311-8.882-20.48-16.342-42.538-22.006-65.829-3.48-14.305-5.601-26.258-6.531-36.237 0-.073-.01-.146-.021-.219-.418-4.639-.575-8.85-.481-12.
664.815-35.662 23.228-36.791 54.857-32.831-3.135 11.17-1.327 31.995 7.544 68.472 21.046 86.445 56.886 158.396 93.99 196.619z" style="" 
fill="#c70052" data-original="#e02d77" class="" opacity="1"></path><path d="M104.33 337.89c17.634-4.292 35.334-.645 49.362 8.639-8.841-20.
465-31.38-32.2-53.771-26.749-22.391 5.451-37.014 26.232-35.46 48.472 8.192-14.694 22.235-26.07 39.869-30.362zM240.066 304.846c17.634-4.292 
35.334-.645 49.362 8.639-8.841-20.465-31.38-32.2-53.771-26.749-22.391 5.451-37.014 26.232-35.46 48.472 8.192-14.694 22.236-26.07 39.869-30.
362zM196.033 429.122c-29.698 7.23-59.511 1.087-83.136-14.551 14.89 34.468 52.852 54.231 90.561 45.051 37.71-9.18 62.341-44.181 59.721-81.636-13.
793 24.747-37.447 43.906-67.146 51.136z" style="" fill="#6e6e6e" data-original="#434d70" class="" opacity="1"></path></g></svg>