<svg xmlns="http://www.w3.org/2000/svg" version="1.1" xmlns:xlink="http://www.w3.org/1999/xlink" width="512" height="512" x="0" y="0" viewBox="0 0 32 32" style="enable-background:new 0 0 512 512" xml:space="preserve" class=""><g><path d="M7 15a6.007 6.007 0 0 0-6 6 12.005 12.005 0 0 0 5.485 9.857 1 1 0 0 0 1.03 0A12.005 12.005 0 0 0 13 21a6.007 6.007 0 0 0-6-6zm0 8a2 2 0 1 1 2-2 2.002 2.002 0 0 1-2 2zM25 1a6.007 6.007 0 0 0-6 6 12.005 12.005 0 0 0 5.485 9.857 1 1 0 0 0 1.03 0A12.005 12.005 0 0 0 31 7a6.007 6.007 0 0 0-6-6zm0 8a2 2 0 1 1 2-2 2.002 2.002 0 0 1-2 2zM29 26a5.002 5.002 0 0 1-5 5H10.54a15.945 15.945 0 0 0 1.79-2H24a3 3 0 0 0 0-6h-5a4 4 0 0 1 0-8h.67a15.945 15.945 0 0 0 1.79 2H19a2 2 0 0 0 0 4h5a5.002 5.002 0 0 1 5 5z" fill="#14768b" opacity="1" data-original="#000000" class=""></path></g></svg>